<svg xmlns="http://www.w3.org/2000/svg" xmlns:xlink="http://www.w3.org/1999/xlink" width="529" zoomAndPan="magnify" viewBox="0 0 396.75 396.749985" height="529" preserveAspectRatio="xMidYMid meet" version="1.0"><path fill="#ffffff" d="M 383.550781 184.359375 L 367.53125 167.792969 C 355.875 155.742188 350.421875 138.976562 352.777344 122.371094 L 356.003906 99.554688 C 357.417969 89.546875 350.636719 80.230469 340.6875 78.472656 L 317.996094 74.488281 C 301.484375 71.585938 287.21875 61.238281 279.351562 46.410156 L 268.550781 26.058594 C 263.820312 17.175781 252.855469 13.605469 243.792969 18.046875 L 223.09375 28.160156 C 208.03125 35.519531 190.394531 35.519531 175.332031 28.160156 L 154.617188 18.046875 C 145.554688 13.605469 134.589844 17.175781 129.859375 26.09375 L 119.054688 46.449219 C 111.1875 61.273438 96.941406 71.625 80.414062 74.523438 L 57.722656 78.511719 C 47.769531 80.25 40.992188 89.566406 42.40625 99.570312 L 45.632812 122.390625 C 47.988281 138.992188 42.53125 155.757812 30.878906 167.8125 L 14.855469 184.378906 C 7.824219 191.644531 7.824219 203.15625 14.855469 210.421875 L 30.878906 226.988281 C 42.53125 239.042969 47.988281 255.808594 45.632812 272.410156 L 42.40625 295.230469 C 40.992188 305.234375 47.769531 314.550781 57.722656 316.308594 L 80.414062 320.296875 C 96.925781 323.195312 111.1875 333.546875 119.054688 348.371094 L 129.859375 368.726562 C 134.589844 377.644531 145.554688 381.214844 154.632812 376.773438 L 175.332031 366.660156 C 190.394531 359.300781 208.03125 359.300781 223.09375 366.660156 L 243.792969 376.773438 C 252.871094 381.214844 263.820312 377.644531 268.566406 368.726562 L 279.371094 348.371094 C 287.238281 333.566406 301.484375 323.195312 318.011719 320.296875 L 340.707031 316.308594 C 350.65625 314.570312 357.433594 305.234375 356.019531 295.230469 L 352.792969 272.410156 C 350.4375 255.808594 355.894531 239.042969 367.546875 226.988281 L 383.570312 210.421875 C 390.566406 203.15625 390.566406 191.628906 383.550781 184.359375 Z M 168.265625 264.582031 L 126.703125 223.019531 C 119.636719 215.953125 119.636719 204.460938 126.703125 197.390625 C 133.773438 190.324219 145.265625 190.324219 152.332031 197.390625 L 181.078125 226.136719 L 264.199219 143.015625 C 271.269531 135.949219 282.761719 135.949219 289.828125 143.015625 C 296.898438 150.085938 296.898438 161.578125 289.828125 168.644531 L 193.894531 264.582031 C 186.824219 271.648438 175.332031 271.648438 168.265625 264.582031 Z M 168.265625 264.582031 " fill-opacity="1" fill-rule="nonzero"/></svg>