<svg xmlns="http://www.w3.org/2000/svg" xmlns:xlink="http://www.w3.org/1999/xlink" width="529" zoomAndPan="magnify" viewBox="0 0 396.75 396.749985" height="529" preserveAspectRatio="xMidYMid meet" version="1.0"><defs><clipPath id="aa544b44bb"><path d="M 0 0 L 396.5 0 L 396.5 396.5 L 0 396.5 Z M 0 0 " clip-rule="nonzero"/></clipPath></defs><path fill="#ffffff" d="M 275.300781 115.175781 L 212.34375 94.191406 C 207.777344 92.703125 203.097656 91.960938 198.296875 91.960938 C 193.496094 91.960938 188.816406 92.703125 184.25 94.191406 L 121.292969 115.175781 C 120.472656 115.453125 119.710938 115.851562 119.015625 116.367188 C 118.320312 116.882812 117.722656 117.492188 117.21875 118.195312 C 116.710938 118.902344 116.328125 119.664062 116.066406 120.488281 C 115.800781 121.316406 115.671875 122.160156 115.671875 123.027344 L 115.671875 182.761719 C 115.667969 185.945312 115.78125 189.125 116.003906 192.300781 C 116.230469 195.476562 116.570312 198.636719 117.023438 201.789062 C 117.476562 204.9375 118.042969 208.066406 118.726562 211.175781 C 119.40625 214.285156 120.195312 217.367188 121.097656 220.417969 C 122 223.472656 123.011719 226.488281 124.132812 229.464844 C 125.253906 232.445312 126.476562 235.378906 127.8125 238.269531 C 129.144531 241.160156 130.578125 244 132.113281 246.785156 C 133.652344 249.574219 135.289062 252.300781 137.023438 254.96875 C 138.757812 257.636719 140.585938 260.242188 142.507812 262.777344 C 144.429688 265.316406 146.441406 267.777344 148.539062 270.171875 C 150.640625 272.5625 152.824219 274.875 155.089844 277.109375 C 157.359375 279.339844 159.703125 281.492188 162.125 283.554688 C 164.546875 285.621094 167.042969 287.59375 169.605469 289.476562 C 172.171875 291.363281 174.800781 293.152344 177.496094 294.84375 C 180.191406 296.539062 182.941406 298.136719 185.75 299.628906 C 188.5625 301.125 191.421875 302.519531 194.332031 303.808594 C 195.640625 304.410156 197.019531 304.710938 198.460938 304.710938 C 199.90625 304.710938 201.28125 304.410156 202.59375 303.808594 C 205.496094 302.511719 208.347656 301.113281 211.148438 299.613281 C 213.949219 298.113281 216.695312 296.511719 219.382812 294.8125 C 222.066406 293.117188 224.6875 291.320312 227.246094 289.433594 C 229.800781 287.546875 232.289062 285.570312 234.703125 283.5 C 237.117188 281.433594 239.453125 279.285156 241.710938 277.046875 C 243.972656 274.8125 246.148438 272.5 248.238281 270.105469 C 250.332031 267.714844 252.335938 265.25 254.25 262.710938 C 256.164062 260.175781 257.984375 257.570312 259.710938 254.902344 C 261.4375 252.234375 263.066406 249.507812 264.59375 246.722656 C 266.125 243.9375 267.554688 241.097656 268.878906 238.210938 C 270.203125 235.320312 271.421875 232.390625 272.539062 229.410156 C 273.652344 226.433594 274.65625 223.421875 275.550781 220.375 C 276.449219 217.324219 277.234375 214.246094 277.910156 211.140625 C 278.582031 208.035156 279.144531 204.910156 279.59375 201.761719 C 280.042969 198.617188 280.378906 195.457031 280.601562 192.285156 C 280.820312 189.117188 280.929688 185.941406 280.921875 182.761719 L 280.921875 123.027344 C 280.921875 122.160156 280.792969 121.316406 280.527344 120.488281 C 280.265625 119.664062 279.882812 118.902344 279.375 118.195312 C 278.871094 117.492188 278.273438 116.882812 277.578125 116.367188 C 276.882812 115.851562 276.121094 115.453125 275.300781 115.175781 Z M 264.394531 182.761719 C 264.390625 185.484375 264.292969 188.203125 264.097656 190.917969 C 263.90625 193.632812 263.617188 196.335938 263.230469 199.03125 C 262.847656 201.722656 262.367188 204.402344 261.796875 207.0625 C 261.222656 209.722656 260.558594 212.359375 259.800781 214.972656 C 259.042969 217.585938 258.195312 220.171875 257.253906 222.726562 C 256.316406 225.277344 255.289062 227.796875 254.171875 230.277344 C 253.054688 232.761719 251.851562 235.199219 250.566406 237.597656 C 249.277344 239.996094 247.90625 242.34375 246.453125 244.644531 C 245 246.945312 243.46875 249.191406 241.859375 251.386719 C 240.246094 253.578125 238.5625 255.714844 236.800781 257.789062 C 235.039062 259.863281 233.207031 261.875 231.304688 263.820312 C 229.40625 265.765625 227.4375 267.644531 225.402344 269.453125 C 223.367188 271.257812 221.273438 272.992188 219.117188 274.65625 C 216.960938 276.316406 214.75 277.898438 212.484375 279.402344 C 210.214844 280.910156 207.898438 282.332031 205.53125 283.675781 C 203.164062 285.015625 200.753906 286.273438 198.296875 287.449219 C 195.839844 286.273438 193.429688 285.015625 191.0625 283.675781 C 188.695312 282.332031 186.378906 280.910156 184.109375 279.402344 C 181.84375 277.898438 179.632812 276.316406 177.476562 274.65625 C 175.320312 272.992188 173.226562 271.257812 171.191406 269.453125 C 169.15625 267.644531 167.191406 265.765625 165.289062 263.820312 C 163.386719 261.875 161.554688 259.863281 159.792969 257.789062 C 158.03125 255.714844 156.347656 253.578125 154.734375 251.386719 C 153.125 249.191406 151.59375 246.945312 150.140625 244.644531 C 148.6875 242.34375 147.316406 239.996094 146.027344 237.597656 C 144.742188 235.199219 143.539062 232.761719 142.421875 230.277344 C 141.304688 227.796875 140.277344 225.277344 139.339844 222.726562 C 138.398438 220.171875 137.550781 217.585938 136.792969 214.972656 C 136.035156 212.359375 135.371094 209.722656 134.796875 207.0625 C 134.226562 204.402344 133.746094 201.722656 133.363281 199.03125 C 132.976562 196.335938 132.6875 193.632812 132.496094 190.917969 C 132.300781 188.203125 132.203125 185.484375 132.199219 182.761719 L 132.199219 128.976562 L 189.539062 109.890625 C 192.378906 108.9375 195.300781 108.464844 198.296875 108.464844 C 201.292969 108.464844 204.214844 108.9375 207.054688 109.890625 L 264.394531 128.976562 Z M 264.394531 182.761719 " fill-opacity="1" fill-rule="nonzero"/><path fill="#ffffff" d="M 173.511719 192.429688 C 173.125 192.046875 172.707031 191.703125 172.253906 191.398438 C 171.800781 191.097656 171.320312 190.839844 170.816406 190.632812 C 170.316406 190.421875 169.796875 190.265625 169.261719 190.160156 C 168.726562 190.054688 168.1875 190 167.644531 190 C 167.097656 190 166.558594 190.054688 166.023438 190.160156 C 165.492188 190.265625 164.972656 190.421875 164.46875 190.632812 C 163.964844 190.839844 163.488281 191.097656 163.035156 191.398438 C 162.582031 191.703125 162.164062 192.046875 161.777344 192.429688 C 161.390625 192.816406 161.046875 193.234375 160.746094 193.6875 C 160.441406 194.140625 160.1875 194.617188 159.980469 195.121094 C 159.769531 195.625 159.613281 196.144531 159.507812 196.679688 C 159.402344 197.210938 159.347656 197.753906 159.347656 198.296875 C 159.347656 198.839844 159.402344 199.382812 159.507812 199.914062 C 159.613281 200.449219 159.769531 200.96875 159.980469 201.472656 C 160.1875 201.976562 160.441406 202.453125 160.746094 202.90625 C 161.046875 203.359375 161.390625 203.777344 161.777344 204.164062 L 182.433594 224.820312 C 182.816406 225.207031 183.234375 225.550781 183.6875 225.855469 C 184.140625 226.160156 184.617188 226.417969 185.121094 226.628906 C 185.625 226.835938 186.144531 226.996094 186.679688 227.101562 C 187.214844 227.210938 187.753906 227.261719 188.300781 227.261719 C 188.84375 227.261719 189.386719 227.210938 189.917969 227.101562 C 190.453125 226.996094 190.972656 226.835938 191.476562 226.628906 C 191.980469 226.417969 192.457031 226.160156 192.910156 225.855469 C 193.363281 225.550781 193.78125 225.207031 194.164062 224.820312 L 235.476562 183.507812 C 235.863281 183.101562 236.203125 182.660156 236.503906 182.1875 C 236.800781 181.710938 237.050781 181.210938 237.25 180.6875 C 237.449219 180.167969 237.597656 179.628906 237.691406 179.078125 C 237.785156 178.523438 237.824219 177.96875 237.808594 177.410156 C 237.792969 176.847656 237.722656 176.296875 237.597656 175.75 C 237.472656 175.203125 237.296875 174.675781 237.070312 174.164062 C 236.839844 173.652344 236.5625 173.167969 236.238281 172.710938 C 235.917969 172.253906 235.550781 171.832031 235.144531 171.445312 C 234.738281 171.0625 234.296875 170.71875 233.824219 170.421875 C 233.347656 170.125 232.851562 169.875 232.328125 169.675781 C 231.804688 169.472656 231.265625 169.328125 230.714844 169.234375 C 230.164062 169.136719 229.605469 169.097656 229.046875 169.113281 C 228.488281 169.128906 227.933594 169.199219 227.386719 169.324219 C 226.839844 169.445312 226.3125 169.625 225.800781 169.851562 C 225.289062 170.078125 224.804688 170.355469 224.347656 170.679688 C 223.890625 171.003906 223.46875 171.367188 223.085938 171.773438 L 187.636719 207.304688 Z M 173.511719 192.429688 " fill-opacity="1" fill-rule="nonzero"/><g clip-path="url(#aa544b44bb)"><path fill="#ffffff" d="M 198.296875 0 C 195.050781 0 191.808594 0.078125 188.566406 0.238281 C 185.324219 0.398438 182.089844 0.636719 178.859375 0.953125 C 175.628906 1.273438 172.410156 1.671875 169.199219 2.144531 C 165.992188 2.621094 162.792969 3.175781 159.609375 3.808594 C 156.429688 4.441406 153.261719 5.152344 150.113281 5.941406 C 146.964844 6.730469 143.839844 7.597656 140.734375 8.539062 C 137.628906 9.480469 134.546875 10.5 131.492188 11.589844 C 128.4375 12.683594 125.410156 13.851562 122.410156 15.09375 C 119.414062 16.335938 116.449219 17.652344 113.515625 19.039062 C 110.582031 20.425781 107.683594 21.886719 104.820312 23.414062 C 101.957031 24.945312 99.136719 26.542969 96.351562 28.210938 C 93.566406 29.878906 90.828125 31.617188 88.128906 33.417969 C 85.429688 35.222656 82.777344 37.089844 80.171875 39.023438 C 77.566406 40.957031 75.007812 42.953125 72.5 45.011719 C 69.988281 47.070312 67.535156 49.1875 65.128906 51.367188 C 62.722656 53.546875 60.375 55.785156 58.078125 58.078125 C 55.785156 60.375 53.546875 62.722656 51.367188 65.128906 C 49.1875 67.535156 47.070312 69.988281 45.011719 72.5 C 42.953125 75.007812 40.957031 77.566406 39.023438 80.171875 C 37.089844 82.777344 35.222656 85.429688 33.417969 88.128906 C 31.617188 90.828125 29.878906 93.566406 28.210938 96.351562 C 26.542969 99.136719 24.945312 101.957031 23.414062 104.820312 C 21.886719 107.683594 20.425781 110.582031 19.039062 113.515625 C 17.652344 116.449219 16.335938 119.414062 15.09375 122.410156 C 13.851562 125.410156 12.683594 128.4375 11.589844 131.492188 C 10.5 134.546875 9.480469 137.628906 8.539062 140.734375 C 7.597656 143.839844 6.730469 146.964844 5.941406 150.113281 C 5.152344 153.261719 4.441406 156.429688 3.808594 159.609375 C 3.175781 162.792969 2.621094 165.992188 2.144531 169.199219 C 1.671875 172.410156 1.273438 175.628906 0.953125 178.859375 C 0.636719 182.089844 0.398438 185.324219 0.238281 188.566406 C 0.078125 191.808594 0 195.050781 0 198.296875 C 0 201.542969 0.078125 204.785156 0.238281 208.027344 C 0.398438 211.269531 0.636719 214.503906 0.953125 217.734375 C 1.273438 220.964844 1.671875 224.183594 2.144531 227.394531 C 2.621094 230.601562 3.175781 233.800781 3.808594 236.984375 C 4.441406 240.164062 5.152344 243.332031 5.941406 246.480469 C 6.730469 249.628906 7.597656 252.753906 8.539062 255.859375 C 9.480469 258.964844 10.5 262.046875 11.589844 265.101562 C 12.683594 268.15625 13.851562 271.183594 15.09375 274.183594 C 16.335938 277.179688 17.652344 280.144531 19.039062 283.078125 C 20.425781 286.011719 21.886719 288.910156 23.414062 291.773438 C 24.945312 294.636719 26.542969 297.457031 28.210938 300.242188 C 29.878906 303.027344 31.617188 305.765625 33.417969 308.464844 C 35.222656 311.164062 37.089844 313.816406 39.023438 316.421875 C 40.957031 319.027344 42.953125 321.585938 45.011719 324.09375 C 47.070312 326.605469 49.1875 329.058594 51.367188 331.464844 C 53.546875 333.871094 55.785156 336.21875 58.078125 338.515625 C 60.375 340.808594 62.722656 343.046875 65.128906 345.226562 C 67.535156 347.40625 69.988281 349.523438 72.5 351.582031 C 75.007812 353.640625 77.566406 355.636719 80.171875 357.570312 C 82.777344 359.503906 85.429688 361.371094 88.128906 363.175781 C 90.828125 364.976562 93.570312 366.714844 96.351562 368.382812 C 99.136719 370.050781 101.957031 371.648438 104.820312 373.179688 C 107.683594 374.707031 110.582031 376.167969 113.515625 377.554688 C 116.449219 378.941406 119.414062 380.257812 122.410156 381.5 C 125.410156 382.742188 128.4375 383.910156 131.492188 385.003906 C 134.546875 386.09375 137.628906 387.113281 140.734375 388.054688 C 143.839844 388.996094 146.964844 389.863281 150.113281 390.652344 C 153.261719 391.441406 156.429688 392.152344 159.609375 392.785156 C 162.792969 393.417969 165.992188 393.972656 169.199219 394.449219 C 172.410156 394.921875 175.628906 395.320312 178.859375 395.640625 C 182.089844 395.957031 185.324219 396.195312 188.566406 396.355469 C 191.808594 396.515625 195.050781 396.59375 198.296875 396.59375 C 201.542969 396.59375 204.785156 396.515625 208.027344 396.355469 C 211.269531 396.195312 214.503906 395.957031 217.734375 395.640625 C 220.964844 395.320312 224.183594 394.921875 227.394531 394.449219 C 230.601562 393.972656 233.800781 393.417969 236.984375 392.785156 C 240.164062 392.152344 243.332031 391.441406 246.480469 390.652344 C 249.628906 389.863281 252.753906 388.996094 255.859375 388.054688 C 258.964844 387.113281 262.046875 386.09375 265.101562 385.003906 C 268.15625 383.910156 271.183594 382.742188 274.183594 381.5 C 277.179688 380.257812 280.144531 378.941406 283.078125 377.554688 C 286.011719 376.167969 288.910156 374.707031 291.773438 373.179688 C 294.636719 371.648438 297.457031 370.050781 300.242188 368.382812 C 303.027344 366.714844 305.765625 364.976562 308.464844 363.175781 C 311.164062 361.371094 313.816406 359.503906 316.421875 357.570312 C 319.027344 355.636719 321.585938 353.640625 324.09375 351.582031 C 326.605469 349.523438 329.058594 347.40625 331.464844 345.226562 C 333.871094 343.046875 336.21875 340.808594 338.515625 338.515625 C 340.808594 336.21875 343.046875 333.871094 345.226562 331.464844 C 347.40625 329.058594 349.523438 326.605469 351.582031 324.09375 C 353.640625 321.585938 355.636719 319.027344 357.570312 316.421875 C 359.503906 313.816406 361.371094 311.164062 363.175781 308.464844 C 364.976562 305.765625 366.714844 303.027344 368.382812 300.242188 C 370.050781 297.457031 371.648438 294.636719 373.179688 291.773438 C 374.710938 288.910156 376.167969 286.011719 377.554688 283.078125 C 378.941406 280.144531 380.257812 277.179688 381.5 274.183594 C 382.742188 271.183594 383.910156 268.15625 385.003906 265.101562 C 386.09375 262.046875 387.113281 258.964844 388.054688 255.859375 C 388.996094 252.753906 389.863281 249.628906 390.652344 246.480469 C 391.441406 243.332031 392.152344 240.164062 392.785156 236.984375 C 393.417969 233.800781 393.972656 230.601562 394.449219 227.394531 C 394.921875 224.183594 395.320312 220.964844 395.640625 217.734375 C 395.957031 214.503906 396.195312 211.269531 396.355469 208.027344 C 396.515625 204.785156 396.59375 201.542969 396.59375 198.296875 C 396.59375 195.050781 396.515625 191.808594 396.355469 188.566406 C 396.195312 185.324219 395.957031 182.089844 395.640625 178.859375 C 395.320312 175.628906 394.921875 172.410156 394.449219 169.199219 C 393.972656 165.992188 393.417969 162.792969 392.785156 159.609375 C 392.152344 156.429688 391.441406 153.261719 390.652344 150.113281 C 389.863281 146.964844 388.996094 143.839844 388.054688 140.734375 C 387.113281 137.628906 386.09375 134.546875 385.003906 131.492188 C 383.910156 128.4375 382.742188 125.410156 381.5 122.410156 C 380.257812 119.414062 378.941406 116.449219 377.554688 113.515625 C 376.167969 110.582031 374.710938 107.683594 373.179688 104.820312 C 371.648438 101.957031 370.050781 99.136719 368.382812 96.351562 C 366.714844 93.566406 364.976562 90.828125 363.175781 88.128906 C 361.371094 85.429688 359.503906 82.777344 357.570312 80.171875 C 355.636719 77.566406 353.640625 75.007812 351.582031 72.5 C 349.523438 69.988281 347.40625 67.535156 345.226562 65.128906 C 343.046875 62.722656 340.808594 60.375 338.515625 58.078125 C 336.21875 55.785156 333.871094 53.546875 331.464844 51.367188 C 329.058594 49.1875 326.605469 47.070312 324.09375 45.011719 C 321.585938 42.953125 319.027344 40.957031 316.421875 39.023438 C 313.816406 37.089844 311.164062 35.222656 308.464844 33.417969 C 305.765625 31.617188 303.027344 29.878906 300.242188 28.210938 C 297.457031 26.542969 294.636719 24.945312 291.773438 23.414062 C 288.910156 21.886719 286.011719 20.425781 283.078125 19.039062 C 280.144531 17.652344 277.179688 16.335938 274.183594 15.09375 C 271.183594 13.851562 268.15625 12.683594 265.101562 11.589844 C 262.046875 10.5 258.964844 9.480469 255.859375 8.539062 C 252.753906 7.597656 249.628906 6.730469 246.480469 5.941406 C 243.332031 5.152344 240.164062 4.441406 236.984375 3.808594 C 233.800781 3.175781 230.601562 2.621094 227.394531 2.144531 C 224.183594 1.671875 220.964844 1.273438 217.734375 0.953125 C 214.503906 0.636719 211.269531 0.398438 208.027344 0.238281 C 204.785156 0.078125 201.542969 0 198.296875 0 Z M 198.296875 380.070312 C 195.320312 380.070312 192.347656 379.996094 189.378906 379.851562 C 186.40625 379.703125 183.441406 379.484375 180.480469 379.195312 C 177.519531 378.902344 174.566406 378.539062 171.625 378.101562 C 168.683594 377.664062 165.753906 377.15625 162.835938 376.578125 C 159.917969 375.996094 157.015625 375.34375 154.128906 374.621094 C 151.246094 373.898438 148.378906 373.105469 145.53125 372.242188 C 142.683594 371.378906 139.859375 370.445312 137.058594 369.445312 C 134.257812 368.441406 131.484375 367.371094 128.734375 366.234375 C 125.988281 365.09375 123.269531 363.890625 120.578125 362.617188 C 117.890625 361.34375 115.234375 360.007812 112.609375 358.605469 C 109.988281 357.203125 107.398438 355.738281 104.847656 354.207031 C 102.296875 352.679688 99.78125 351.085938 97.308594 349.433594 C 94.835938 347.78125 92.40625 346.070312 90.015625 344.296875 C 87.625 342.527344 85.28125 340.695312 82.980469 338.808594 C 80.683594 336.921875 78.429688 334.980469 76.226562 332.980469 C 74.023438 330.984375 71.867188 328.933594 69.765625 326.828125 C 67.660156 324.726562 65.609375 322.570312 63.613281 320.367188 C 61.613281 318.164062 59.671875 315.910156 57.785156 313.613281 C 55.898438 311.3125 54.066406 308.96875 52.296875 306.578125 C 50.523438 304.1875 48.8125 301.757812 47.160156 299.285156 C 45.507812 296.8125 43.914062 294.296875 42.386719 291.746094 C 40.855469 289.195312 39.390625 286.605469 37.988281 283.984375 C 36.585938 281.359375 35.25 278.703125 33.976562 276.015625 C 32.703125 273.324219 31.5 270.605469 30.359375 267.859375 C 29.222656 265.109375 28.152344 262.335938 27.152344 259.535156 C 26.148438 256.734375 25.214844 253.910156 24.351562 251.0625 C 23.488281 248.214844 22.695312 245.347656 21.972656 242.464844 C 21.25 239.578125 20.597656 236.675781 20.015625 233.757812 C 19.4375 230.839844 18.929688 227.910156 18.492188 224.96875 C 18.054688 222.027344 17.691406 219.074219 17.398438 216.113281 C 17.109375 213.152344 16.890625 210.1875 16.742188 207.214844 C 16.597656 204.246094 16.523438 201.273438 16.523438 198.296875 C 16.523438 195.320312 16.597656 192.347656 16.742188 189.378906 C 16.890625 186.40625 17.109375 183.441406 17.398438 180.480469 C 17.691406 177.519531 18.054688 174.566406 18.492188 171.625 C 18.929688 168.683594 19.4375 165.753906 20.015625 162.835938 C 20.597656 159.917969 21.25 157.015625 21.972656 154.128906 C 22.695312 151.246094 23.488281 148.378906 24.351562 145.53125 C 25.214844 142.683594 26.148438 139.859375 27.152344 137.058594 C 28.152344 134.257812 29.222656 131.484375 30.359375 128.734375 C 31.5 125.988281 32.703125 123.269531 33.976562 120.578125 C 35.25 117.890625 36.585938 115.234375 37.988281 112.609375 C 39.390625 109.988281 40.855469 107.398438 42.386719 104.847656 C 43.914062 102.296875 45.507812 99.78125 47.160156 97.308594 C 48.8125 94.835938 50.523438 92.40625 52.296875 90.015625 C 54.066406 87.625 55.898438 85.28125 57.785156 82.980469 C 59.671875 80.683594 61.613281 78.429688 63.613281 76.226562 C 65.609375 74.023438 67.660156 71.867188 69.765625 69.765625 C 71.867188 67.660156 74.023438 65.609375 76.226562 63.613281 C 78.429688 61.613281 80.683594 59.671875 82.980469 57.785156 C 85.28125 55.898438 87.625 54.066406 90.015625 52.296875 C 92.40625 50.523438 94.835938 48.8125 97.308594 47.160156 C 99.78125 45.507812 102.296875 43.914062 104.847656 42.386719 C 107.398438 40.855469 109.988281 39.390625 112.609375 37.988281 C 115.234375 36.585938 117.890625 35.25 120.578125 33.976562 C 123.269531 32.703125 125.988281 31.5 128.734375 30.359375 C 131.484375 29.222656 134.257812 28.152344 137.058594 27.152344 C 139.859375 26.148438 142.683594 25.214844 145.53125 24.351562 C 148.378906 23.488281 151.246094 22.695312 154.128906 21.972656 C 157.015625 21.25 159.917969 20.597656 162.835938 20.015625 C 165.753906 19.4375 168.683594 18.929688 171.625 18.492188 C 174.566406 18.054688 177.519531 17.691406 180.480469 17.398438 C 183.441406 17.109375 186.40625 16.890625 189.378906 16.742188 C 192.347656 16.597656 195.320312 16.523438 198.296875 16.523438 C 201.273438 16.523438 204.246094 16.597656 207.214844 16.742188 C 210.1875 16.890625 213.152344 17.109375 216.113281 17.398438 C 219.074219 17.691406 222.027344 18.054688 224.96875 18.492188 C 227.910156 18.929688 230.839844 19.4375 233.757812 20.015625 C 236.675781 20.597656 239.578125 21.25 242.464844 21.972656 C 245.347656 22.695312 248.214844 23.488281 251.0625 24.351562 C 253.910156 25.214844 256.734375 26.148438 259.535156 27.152344 C 262.335938 28.152344 265.109375 29.222656 267.859375 30.359375 C 270.605469 31.5 273.324219 32.703125 276.015625 33.976562 C 278.703125 35.25 281.359375 36.585938 283.984375 37.988281 C 286.605469 39.390625 289.195312 40.855469 291.746094 42.386719 C 294.296875 43.914062 296.8125 45.507812 299.285156 47.160156 C 301.757812 48.8125 304.1875 50.523438 306.578125 52.296875 C 308.96875 54.066406 311.3125 55.898438 313.613281 57.785156 C 315.910156 59.671875 318.164062 61.613281 320.367188 63.613281 C 322.570312 65.609375 324.726562 67.660156 326.828125 69.765625 C 328.933594 71.867188 330.984375 74.023438 332.980469 76.226562 C 334.980469 78.429688 336.921875 80.683594 338.808594 82.980469 C 340.695312 85.28125 342.527344 87.625 344.296875 90.015625 C 346.070312 92.40625 347.78125 94.835938 349.433594 97.308594 C 351.085938 99.78125 352.679688 102.296875 354.207031 104.847656 C 355.738281 107.398438 357.203125 109.988281 358.605469 112.609375 C 360.007812 115.234375 361.34375 117.890625 362.617188 120.578125 C 363.890625 123.269531 365.09375 125.988281 366.234375 128.734375 C 367.371094 131.484375 368.441406 134.257812 369.445312 137.058594 C 370.445312 139.859375 371.378906 142.683594 372.242188 145.53125 C 373.105469 148.378906 373.898438 151.246094 374.621094 154.128906 C 375.34375 157.015625 375.996094 159.917969 376.578125 162.835938 C 377.15625 165.753906 377.664062 168.683594 378.101562 171.625 C 378.539062 174.566406 378.902344 177.519531 379.195312 180.480469 C 379.484375 183.441406 379.703125 186.40625 379.851562 189.378906 C 379.996094 192.347656 380.070312 195.320312 380.070312 198.296875 C 380.070312 201.273438 379.996094 204.246094 379.851562 207.214844 C 379.703125 210.1875 379.484375 213.152344 379.195312 216.113281 C 378.902344 219.074219 378.539062 222.027344 378.101562 224.96875 C 377.664062 227.910156 377.15625 230.839844 376.578125 233.757812 C 375.996094 236.675781 375.34375 239.578125 374.621094 242.464844 C 373.898438 245.347656 373.105469 248.214844 372.242188 251.0625 C 371.378906 253.910156 370.445312 256.734375 369.445312 259.535156 C 368.441406 262.335938 367.371094 265.109375 366.234375 267.859375 C 365.09375 270.605469 363.890625 273.324219 362.617188 276.015625 C 361.34375 278.703125 360.007812 281.359375 358.605469 283.984375 C 357.203125 286.605469 355.738281 289.195312 354.207031 291.746094 C 352.679688 294.296875 351.085938 296.8125 349.433594 299.285156 C 347.78125 301.757812 346.070312 304.1875 344.296875 306.578125 C 342.527344 308.96875 340.695312 311.3125 338.808594 313.613281 C 336.921875 315.910156 334.980469 318.164062 332.980469 320.367188 C 330.984375 322.570312 328.933594 324.726562 326.828125 326.828125 C 324.726562 328.933594 322.570312 330.984375 320.367188 332.980469 C 318.164062 334.980469 315.910156 336.921875 313.613281 338.808594 C 311.3125 340.695312 308.96875 342.527344 306.578125 344.296875 C 304.1875 346.070312 301.757812 347.78125 299.285156 349.433594 C 296.8125 351.085938 294.296875 352.679688 291.746094 354.207031 C 289.195312 355.738281 286.605469 357.203125 283.984375 358.605469 C 281.359375 360.007812 278.703125 361.34375 276.015625 362.617188 C 273.324219 363.890625 270.605469 365.09375 267.859375 366.234375 C 265.109375 367.371094 262.335938 368.441406 259.535156 369.445312 C 256.734375 370.445312 253.910156 371.378906 251.0625 372.242188 C 248.214844 373.105469 245.347656 373.898438 242.464844 374.621094 C 239.578125 375.34375 236.675781 375.996094 233.757812 376.578125 C 230.839844 377.15625 227.910156 377.664062 224.96875 378.101562 C 222.027344 378.539062 219.074219 378.902344 216.113281 379.195312 C 213.152344 379.484375 210.1875 379.703125 207.214844 379.851562 C 204.246094 379.996094 201.273438 380.070312 198.296875 380.070312 Z M 198.296875 380.070312 " fill-opacity="1" fill-rule="nonzero"/></g></svg>