<svg xmlns="http://www.w3.org/2000/svg" xmlns:xlink="http://www.w3.org/1999/xlink" width="529" zoomAndPan="magnify" viewBox="0 0 396.75 396.749985" height="529" preserveAspectRatio="xMidYMid meet" version="1.0"><defs><clipPath id="b032582d1c"><path d="M 63.214844 5.230469 L 327.609375 5.230469 L 327.609375 269.628906 L 63.214844 269.628906 Z M 63.214844 5.230469 " clip-rule="nonzero"/></clipPath><clipPath id="7be847f702"><path d="M 195.410156 5.230469 C 122.398438 5.230469 63.214844 64.417969 63.214844 137.429688 C 63.214844 210.441406 122.398438 269.628906 195.410156 269.628906 C 268.421875 269.628906 327.609375 210.441406 327.609375 137.429688 C 327.609375 64.417969 268.421875 5.230469 195.410156 5.230469 Z M 195.410156 5.230469 " clip-rule="nonzero"/></clipPath><clipPath id="84aa961eb1"><path d="M 132.199219 126.96875 L 396.5 126.96875 L 396.5 391.363281 L 132.199219 391.363281 Z M 132.199219 126.96875 " clip-rule="nonzero"/></clipPath><clipPath id="8b1d74797e"><path d="M 264.398438 126.96875 C 191.386719 126.96875 132.199219 186.15625 132.199219 259.167969 C 132.199219 332.175781 191.386719 391.363281 264.398438 391.363281 C 337.410156 391.363281 396.597656 332.175781 396.597656 259.167969 C 396.597656 186.15625 337.410156 126.96875 264.398438 126.96875 Z M 264.398438 126.96875 " clip-rule="nonzero"/></clipPath><clipPath id="b70a70fa37"><path d="M 0 126.96875 L 264.394531 126.96875 L 264.394531 391.363281 L 0 391.363281 Z M 0 126.96875 " clip-rule="nonzero"/></clipPath><clipPath id="df275b3bde"><path d="M 132.199219 126.96875 C 59.1875 126.96875 0 186.15625 0 259.167969 C 0 332.175781 59.1875 391.363281 132.199219 391.363281 C 205.207031 391.363281 264.394531 332.175781 264.394531 259.167969 C 264.394531 186.15625 205.207031 126.96875 132.199219 126.96875 Z M 132.199219 126.96875 " clip-rule="nonzero"/></clipPath></defs><g clip-path="url(#b032582d1c)"><g clip-path="url(#7be847f702)"><path stroke-linecap="butt" transform="matrix(0.749528, 0, 0, 0.749528, 63.213121, 5.231841)" fill="none" stroke-linejoin="miter" d="M 176.373794 -0.00183036 C 78.963487 -0.00183036 0.00229839 78.96457 0.00229839 176.374877 C 0.00229839 273.785185 78.963487 352.751585 176.373794 352.751585 C 273.784102 352.751585 352.750502 273.785185 352.750502 176.374877 C 352.750502 78.96457 273.784102 -0.00183036 176.373794 -0.00183036 Z M 176.373794 -0.00183036 " stroke="#ffffff" stroke-width="40" stroke-opacity="1" stroke-miterlimit="4"/></g></g><g clip-path="url(#84aa961eb1)"><g clip-path="url(#8b1d74797e)"><path stroke-linecap="butt" transform="matrix(0.749528, 0, 0, 0.749528, 132.200171, 126.968314)" fill="none" stroke-linejoin="miter" d="M 176.375437 0.000581347 C 78.965129 0.000581347 -0.00127054 78.966981 -0.00127054 176.377289 C -0.00127054 273.782385 78.965129 352.748785 176.375437 352.748785 C 273.785744 352.748785 352.752144 273.782385 352.752144 176.377289 C 352.752144 78.966981 273.785744 0.000581347 176.375437 0.000581347 Z M 176.375437 0.000581347 " stroke="#ffffff" stroke-width="40" stroke-opacity="1" stroke-miterlimit="4"/></g></g><g clip-path="url(#b70a70fa37)"><g clip-path="url(#df275b3bde)"><path stroke-linecap="butt" transform="matrix(0.749528, 0, 0, 0.749528, 0.0000075, 126.968314)" fill="none" stroke-linejoin="miter" d="M 176.376697 0.000581347 C 78.96639 0.000581347 -0.0000100063 78.966981 -0.0000100063 176.377289 C -0.0000100063 273.782385 78.96639 352.748785 176.376697 352.748785 C 273.781793 352.748785 352.748193 273.782385 352.748193 176.377289 C 352.748193 78.966981 273.781793 0.000581347 176.376697 0.000581347 Z M 176.376697 0.000581347 " stroke="#ffffff" stroke-width="40" stroke-opacity="1" stroke-miterlimit="4"/></g></g></svg>